<?xml version="1.0" encoding="utf-8"?>
<!-- Generator: Adobe Illustrator 19.2.1, SVG Export Plug-In . SVG Version: 6.00 Build 0)  -->
<svg version="1.1" id="Layer_1" xmlns="http://www.w3.org/2000/svg" xmlns:xlink="http://www.w3.org/1999/xlink" x="0px" y="0px"
	 viewBox="0 0 189.5 40" style="enable-background:new 0 0 189.5 40;" xml:space="preserve">
<style type="text/css">
	.st0{fill-rule:evenodd;clip-rule:evenodd;fill:#005983;}
	.st1{fill:#009D57;}
	.st2{fill:#005983;}
	.st3{fill:#FFFFFF;}
</style>
<g>
	<path class="st0" d="M93.7,11.7c-5.5,0-10.2,2.9-10.2,8.3c0,5.4,4.6,8.3,10.2,8.3c5.5,0,10.2-2.9,10.2-8.3
		C103.9,14.6,99.3,11.7,93.7,11.7z M93.7,24.6c-2.8,0-5.4-1.6-5.4-4.6s2.5-4.6,5.4-4.6c2.8,0,5.4,1.6,5.4,4.6S96.6,24.6,93.7,24.6z"
		/>
	<g>
		<path class="st0" d="M129.2,28.2v-0.4c-0.4,0-0.4-0.3-0.4-0.6V12.8c0-0.3,0-0.6,0.4-0.6v-0.4h-7.7v0.4c0.3,0,0.3,0.3,0.3,0.6
			c-0.1,0.3-1.8,3.6-3.3,6.7c-0.4-0.8-3-6.5-3.1-6.7c-0.1-0.4,0-0.6,0.3-0.6v-0.4h-7.7v0.4c0.5,0,0.4,0.3,0.4,0.6v14.4
			c0,0.3,0,0.5-0.4,0.6v0.4l4.9,0v-0.4c-0.4,0-0.4-0.3-0.4-0.6V15.6h0.1l5.7,12.1l5.8-12l0.1,0.1v11.4c0,0.3,0,0.6-0.4,0.6v0.4
			H129.2z"/>
	</g>
	<g>
		<path class="st0" d="M140.8,28.2v-0.4c-0.4,0-0.4-0.3-0.4-0.6V12.8c0-0.3,0-0.6,0.4-0.6v-0.4H135v0.4c0.4,0,0.4,0.2,0.4,0.6v14.4
			c0,0.3-0.1,0.6-0.4,0.6v0.4H140.8z"/>
	</g>
	<g>
		<path class="st0" d="M146.7,27.2c0,0.3,0,0.6-0.4,0.6v0.4h5.2v-0.4c-0.4,0-0.4-0.3-0.4-0.6v-9.7c8.6,9.1,9.4,9.5,9.4,9.9
			c0,0.3-0.1,0.3-0.3,0.3v0.4h5.2v-0.4c-0.4,0-0.4-0.2-0.4-0.6V12.8c0-0.3,0-0.6,0.4-0.6v-0.4h-5.3v0.4c0.4,0,0.5,0.2,0.5,0.6v8.3
			c-2.3-2.4-7.9-8.1-7.9-8.4c0-0.1-0.2-0.4,0.4-0.4v-0.4h-6.9v0.4c0.4,0,0.4,0.2,0.4,0.6V27.2z"/>
	</g>
	<path class="st0" d="M179.3,15.4c2.8,0,5.4,1.6,5.4,4.6c0,2.9-2.5,4.6-5.4,4.6c-2.8,0-5.4-1.6-5.4-4.6
		C174,17.1,176.5,15.4,179.3,15.4z M179.3,11.7c-5.5,0-10.2,2.9-10.2,8.3c0,5.4,4.6,8.3,10.2,8.3c5.5,0,10.2-2.9,10.2-8.3
		C189.5,14.6,184.9,11.7,179.3,11.7z"/>
	<path class="st0" d="M70.8,11.9H60.4v0.4c0.4,0,0.4,0.3,0.4,0.6v14.4c0,0.3,0,0.5-0.4,0.6v0.4h10c6.1,0,9.2-3.9,9.2-8.2
		C79.6,15.4,76.8,11.9,70.8,11.9z M69.9,24.5h-4.1v-9h4.1c3.5,0,4.9,1.9,4.9,4.5C74.7,22.6,73.3,24.5,69.9,24.5z"/>
	<rect x="19" y="5.9" transform="matrix(0.7071 -0.7071 0.7071 0.7071 -4.4331 29.2974)" class="st1" width="28.3" height="28.3"/>
	<rect x="18.7" y="34.7" class="st1" width="6.7" height="1.8"/>
	<rect x="5.8" y="28.9" class="st2" width="14.7" height="1.8"/>
	<rect x="23.1" y="17.3" class="st3" width="8" height="1.8"/>
	<rect x="24.9" y="28" class="st3" width="8.9" height="0.9"/>
	<rect x="4" y="16.4" class="st1" width="12.9" height="0.9"/>
	<rect x="11.6" y="14.2" class="st1" width="8" height="2.2"/>
	<rect x="13.8" y="24" class="st1" width="22.2" height="2.2"/>
	<rect x="17.3" y="26.2" class="st2" width="9.3" height="1.8"/>
	<rect x="10.2" y="7.6" class="st1" width="12" height="1.8"/>
	<rect x="9.3" y="19.1" class="st2" width="26.7" height="2.2"/>
	<rect y="21.3" class="st1" width="22.2" height="1.8"/>
	<rect x="26" y="32.9" class="st3" width="4.5" height="1.8"/>
	<rect x="24.7" y="4.4" class="st2" width="5.8" height="0.9"/>
	<rect x="27.8" y="5.3" class="st2" width="6.7" height="2.2"/>
	<rect x="16.4" y="12.4" class="st2" width="15.6" height="1.8"/>
	<rect x="24" y="10.7" class="st3" width="15.6" height="1.8"/>
	<rect x="21.3" y="23.1" class="st3" width="20" height="0.9"/>
</g>
</svg>
