<?xml version="1.0" encoding="UTF-8" standalone="no"?>
<svg
   xmlns:dc="http://purl.org/dc/elements/1.1/"
   xmlns:cc="http://creativecommons.org/ns#"
   xmlns:rdf="http://www.w3.org/1999/02/22-rdf-syntax-ns#"
   xmlns:svg="http://www.w3.org/2000/svg"
   xmlns="http://www.w3.org/2000/svg"
   id="svg8"
   version="1.1"
   viewBox="0 0 264.58333 264.58334"
   height="1000"
   width="1000">
  <defs
     id="defs2">
    <filter
       id="filter113"
       style="color-interpolation-filters:sRGB" />
  </defs>
  <metadata
     id="metadata5">
    <rdf:RDF>
      <cc:Work
         rdf:about="">
        <dc:format>image/svg+xml</dc:format>
        <dc:type
           rdf:resource="http://purl.org/dc/dcmitype/StillImage" />
        <dc:title></dc:title>
      </cc:Work>
    </rdf:RDF>
  </metadata>
  <g
     style="display:inline"
     id="layer2">
    <circle
       r="127"
       cy="132.29166"
       cx="132.29166"
       id="path15"
       style="fill:#ff0000;stroke:#000000;stroke-width:3.96875;stroke-miterlimit:4;stroke-dasharray:none;stroke-opacity:1" />
  </g>
  <g
     id="layer3">
    <text
       id="text4652"
       y="99.915749"
       x="120.19246"
       style="font-style:normal;font-variant:normal;font-weight:normal;font-stretch:normal;font-size:59.77454376px;line-height:1.25;font-family:'Arial Rounded MT Bold';-inkscape-font-specification:'Arial Rounded MT Bold, ';letter-spacing:0px;word-spacing:0px;fill:#000000;fill-opacity:1;stroke:none;stroke-width:0.31132573"
       xml:space="preserve" />
    <g
       style="stroke:none;stroke-opacity:1"
       transform="matrix(2.0325043,0,0,2.0325043,-142.43769,-130.46031)"
       id="g4694">
      <path
         id="path4706"
         transform="matrix(0.15317348,0,0,0.15317348,58.581164,52.691462)"
         d="m 315.3457,250 c -16.68821,0 -33.37669,6.39427 -46.16406,19.18164 -25.57474,25.57474 -25.57474,66.75143 0,92.32617 L 407.67383,500 269.18164,638.49219 c -25.57474,25.57474 -25.57474,66.75143 0,92.32617 25.57474,25.57474 66.75143,25.57474 92.32617,0 L 500,592.32617 638.49219,730.81836 c 25.57474,25.57474 66.75143,25.57474 92.32617,0 25.57474,-25.57474 25.57474,-66.75143 0,-92.32617 L 592.32617,500 730.81836,361.50781 c 25.57474,-25.57474 25.57474,-66.75143 0,-92.32617 -25.57474,-25.57474 -66.75143,-25.57474 -92.32617,0 L 500,407.67383 361.50781,269.18164 C 348.72044,256.39427 332.03391,250 315.3457,250 Z"
         style="display:inline;fill:#ffffff;fill-opacity:1;stroke:#000000;stroke-width:10;stroke-miterlimit:4;stroke-dasharray:none;stroke-opacity:1" />
    </g>
  </g>
</svg>
